<?xml version="1.0" encoding="UTF-8" standalone="no"?>
<!DOCTYPE svg PUBLIC "-//W3C//DTD SVG 1.1//EN" "http://www.w3.org/Graphics/SVG/1.1/DTD/svg11.dtd">
<svg width="100%" height="100%" viewBox="0 0 600 600" version="1.1" xmlns="http://www.w3.org/2000/svg" xmlns:xlink="http://www.w3.org/1999/xlink" xml:space="preserve" xmlns:serif="http://www.serif.com/" style="fill-rule:evenodd;clip-rule:evenodd;stroke-linecap:round;stroke-linejoin:round;">
    <g transform="matrix(19.1477,0,0,19.1477,-5442.97,-5536.83)">
        <g id="Ebene1">
            <g>
                <g transform="matrix(1,0,0,1,4.21503,-1.99944)">
                    <g transform="matrix(1,0,0,1,285.628,292.865)">
                        <path d="M17.92,14L21.42,10.5C22.185,9.652 22.185,8.348 21.42,7.5L16.42,2.58C15.572,1.815 14.268,1.815 13.42,2.58L10,6" style="fill:none;fill-rule:nonzero;stroke:black;stroke-width:2px;"/>
                    </g>
                    <g transform="matrix(1,0,0,1,285.628,292.865)">
                        <path d="M15,6L15.01,6" style="fill:none;fill-rule:nonzero;stroke:black;stroke-width:2px;"/>
                    </g>
                    <g transform="matrix(1,0,0,1,285.628,292.865)">
                        <path d="M18,9L18.01,9" style="fill:none;fill-rule:nonzero;stroke:black;stroke-width:2px;"/>
                    </g>
                </g>
                <g transform="matrix(0.847022,0,0,0.847022,19.756,45.7817)">
                    <g transform="matrix(1,0,0,1,314.717,297.956)">
                        <circle cx="13.5" cy="6.5" r="0.5" style="stroke:black;stroke-width:2px;"/>
                    </g>
                    <g transform="matrix(1,0,0,1,314.717,297.956)">
                        <circle cx="17.5" cy="10.5" r="0.5" style="stroke:black;stroke-width:2px;"/>
                    </g>
                    <g transform="matrix(1,0,0,1,314.717,297.956)">
                        <circle cx="8.5" cy="7.5" r="0.5" style="stroke:black;stroke-width:2px;"/>
                    </g>
                    <g transform="matrix(1,0,0,1,314.717,297.956)">
                        <circle cx="6.5" cy="12.5" r="0.5" style="stroke:black;stroke-width:2px;"/>
                    </g>
                    <g transform="matrix(1,0,0,1,314.717,297.956)">
                        <path d="M12,2C6.5,2 2,6.5 2,12C2,17.5 6.5,22 12,22C12.926,22 13.648,21.254 13.648,20.312C13.648,19.875 13.468,19.477 13.211,19.187C12.921,18.898 12.773,18.535 12.773,18.062C12.773,18.053 12.773,18.043 12.773,18.034C12.773,17.134 13.513,16.394 14.413,16.394C14.422,16.394 14.432,16.394 14.441,16.394L16.437,16.394C19.488,16.394 21.992,13.891 21.992,10.84C21.984,9.45 21.605,8.127 20.939,6.948C19.291,4.034 15.888,2 12,2Z" style="fill:none;fill-rule:nonzero;stroke:black;stroke-width:2px;"/>
                    </g>
                </g>
            </g>
        </g>
    </g>
</svg>
